<svg width="291" height="139" viewBox="0 0 291 139" fill="none" xmlns="http://www.w3.org/2000/svg">
<path d="M53.1738 84.9492V67.957C53.1738 63.3672 52.6367 59.3307 51.5625 55.8477C50.4883 52.332 48.9583 49.3861 46.9727 47.0098C44.9544 44.666 42.513 42.8919 39.6484 41.6875C36.7839 40.4831 33.5612 39.8809 29.9805 39.8809C26.4323 39.8809 23.2259 40.4831 20.3613 41.6875C17.5293 42.8919 15.1204 44.666 13.1348 47.0098C11.1165 49.3861 9.57031 52.332 8.49609 55.8477C7.42188 59.3307 6.88477 63.3672 6.88477 67.957V84.9492C6.88477 89.5391 7.42188 93.5918 8.49609 97.1074C9.60286 100.59 11.1654 103.504 13.1836 105.848C15.1693 108.224 17.5944 110.014 20.459 111.219C23.3236 112.423 26.5299 113.025 30.0781 113.025C33.6589 113.025 36.8815 112.423 39.7461 111.219C42.6107 110.014 45.0358 108.224 47.0215 105.848C49.0072 103.504 50.5208 100.59 51.5625 97.1074C52.6367 93.5918 53.1738 89.5391 53.1738 84.9492ZM20.5566 79.0898C20.5566 78.0807 20.5566 77.3158 20.5566 76.7949C20.5566 76.2741 20.5566 75.2324 20.5566 73.6699V65.8086C20.5566 63.1719 20.752 60.8932 21.1426 58.9727C21.5658 57.0521 22.2005 55.4896 23.0469 54.2852C23.8281 53.1458 24.7884 52.2995 25.9277 51.7461C27.0996 51.1602 28.4505 50.8672 29.9805 50.8672C31.3477 50.8672 32.5684 51.0951 33.6426 51.5508C34.7493 51.974 35.6771 52.6413 36.4258 53.5527C37.4023 54.6921 38.1348 56.222 38.623 58.1426C39.1439 60.0306 39.4368 62.3092 39.502 64.9785L20.5566 79.0898ZM39.502 87C39.502 89.6367 39.2904 91.9316 38.8672 93.8848C38.4766 95.8053 37.8743 97.3841 37.0605 98.6211C36.2793 99.793 35.3027 100.672 34.1309 101.258C32.959 101.811 31.6081 102.088 30.0781 102.088C28.418 102.088 26.9857 101.762 25.7812 101.111C24.5768 100.46 23.584 99.4674 22.8027 98.1328C22.1191 97.026 21.582 95.6426 21.1914 93.9824C20.8333 92.3223 20.6217 90.418 20.5566 88.2695L39.502 74.207C39.502 75.151 39.502 75.8835 39.502 76.4043C39.502 76.8926 39.502 77.6738 39.502 78.748V87ZM113.33 112V40.9062H99.5605L99.5117 86.5605L79.8828 40.9062H66.0645V112H79.8828V66.1504L99.6582 112H113.33Z" fill="#216694"/>
<path d="M125.289 97.1387C125.289 99.6452 126.135 101.745 127.828 103.438C129.521 105.13 131.816 105.977 134.713 105.977C137.577 105.977 139.856 105.146 141.549 103.486C143.274 101.794 144.137 99.6777 144.137 97.1387C144.137 94.5996 143.29 92.4674 141.598 90.7422C139.938 89.0169 137.643 88.1543 134.713 88.1543C131.751 88.1543 129.439 89.0332 127.779 90.791C126.119 92.5163 125.289 94.6322 125.289 97.1387ZM125.289 56.8066C125.289 59.3132 126.135 61.4128 127.828 63.1055C129.521 64.7982 131.816 65.6445 134.713 65.6445C137.577 65.6445 139.856 64.8145 141.549 63.1543C143.274 61.4616 144.137 59.3457 144.137 56.8066C144.137 54.2676 143.29 52.1354 141.598 50.4102C139.938 48.6849 137.643 47.8223 134.713 47.8223C131.751 47.8223 129.439 48.7012 127.779 50.459C126.119 52.1842 125.289 54.3001 125.289 56.8066Z" fill="#216694"/>
<path d="M173.703 44.5391V39.875H147.125V44.5391H157.578V74H163.18V44.5391H173.703ZM195.992 48.1719C194.242 48.1719 192.641 48.5781 191.188 49.3906C189.75 50.2031 188.516 51.3203 187.484 52.7422L187.461 52.1562L187.227 48.6406H181.977V74H187.578V58.3438C187.875 57.5938 188.242 56.9297 188.68 56.3516C189.117 55.7734 189.648 55.2969 190.273 54.9219C190.852 54.5312 191.516 54.2422 192.266 54.0547C193.016 53.8672 193.859 53.7734 194.797 53.7734C195.625 53.7734 196.453 53.8203 197.281 53.9141C198.125 54.0078 198.977 54.1484 199.836 54.3359L200.633 48.8047C200.148 48.6328 199.477 48.4844 198.617 48.3594C197.773 48.2344 196.898 48.1719 195.992 48.1719ZM223.484 74H229.203V73.6016C228.891 72.9453 228.648 72.1641 228.477 71.2578C228.32 70.3359 228.242 69.3047 228.242 68.1641V56.8906C228.242 55.4531 227.977 54.1875 227.445 53.0938C226.914 51.9844 226.18 51.0703 225.242 50.3516C224.305 49.6328 223.188 49.0938 221.891 48.7344C220.609 48.3594 219.227 48.1719 217.742 48.1719C216.086 48.1719 214.609 48.3906 213.312 48.8281C212.031 49.25 210.953 49.8281 210.078 50.5625C209.172 51.2812 208.484 52.1094 208.016 53.0469C207.547 53.9844 207.305 54.9609 207.289 55.9766H212.914C212.914 55.4922 213 55.0391 213.172 54.6172C213.359 54.1797 213.641 53.8125 214.016 53.5156C214.391 53.1875 214.859 52.9297 215.422 52.7422C216 52.5547 216.672 52.4609 217.438 52.4609C218.281 52.4609 219.023 52.5703 219.664 52.7891C220.32 52.9922 220.875 53.2891 221.328 53.6797C221.75 54.0703 222.07 54.5312 222.289 55.0625C222.523 55.5938 222.641 56.1875 222.641 56.8438V58.5547H218.562C216.734 58.5547 215.094 58.7266 213.641 59.0703C212.203 59.4141 210.992 59.9141 210.008 60.5703C208.945 61.2734 208.133 62.1641 207.57 63.2422C207.023 64.3047 206.75 65.5312 206.75 66.9219C206.75 68 206.961 69.0078 207.383 69.9453C207.82 70.8672 208.43 71.6562 209.211 72.3125C209.977 72.9844 210.898 73.5156 211.977 73.9062C213.07 74.2812 214.273 74.4688 215.586 74.4688C216.398 74.4688 217.156 74.3906 217.859 74.2344C218.562 74.0781 219.219 73.8594 219.828 73.5781C220.438 73.3125 220.984 73 221.469 72.6406C221.969 72.2656 222.414 71.875 222.805 71.4688C222.883 71.9531 222.969 72.4219 223.062 72.875C223.172 73.3125 223.312 73.6875 223.484 74ZM216.664 69.9688C215.945 69.9688 215.32 69.8828 214.789 69.7109C214.258 69.5234 213.812 69.2734 213.453 68.9609C213.094 68.6484 212.82 68.2734 212.633 67.8359C212.445 67.3828 212.352 66.8984 212.352 66.3828C212.352 65.7578 212.461 65.1953 212.68 64.6953C212.914 64.1953 213.266 63.7656 213.734 63.4062C214.266 62.9844 214.977 62.6641 215.867 62.4453C216.758 62.2109 217.812 62.0938 219.031 62.0938H222.641V66.7812C222.438 67.1875 222.148 67.5781 221.773 67.9531C221.398 68.3281 220.953 68.6641 220.438 68.9609C219.922 69.2578 219.344 69.5 218.703 69.6875C218.078 69.875 217.398 69.9688 216.664 69.9688ZM247.156 69.9688C245.984 69.9688 245.008 69.7344 244.227 69.2656C243.445 68.7969 242.828 68.1719 242.375 67.3906C241.906 66.6406 241.57 65.7734 241.367 64.7891C241.18 63.7891 241.086 62.7734 241.086 61.7422V60.9219C241.086 59.9062 241.18 58.9062 241.367 57.9219C241.57 56.9375 241.914 56.0625 242.398 55.2969C242.852 54.5312 243.461 53.9141 244.227 53.4453C245.008 52.9609 245.984 52.7188 247.156 52.7188C247.922 52.7188 248.633 52.8516 249.289 53.1172C249.961 53.3828 250.539 53.7422 251.023 54.1953C251.492 54.6484 251.852 55.1797 252.102 55.7891C252.367 56.3984 252.5 57.0469 252.5 57.7344H257.773C257.789 56.3281 257.531 55.0391 257 53.8672C256.484 52.6953 255.758 51.6875 254.82 50.8438C253.883 50 252.758 49.3438 251.445 48.875C250.148 48.4062 248.734 48.1719 247.203 48.1719C245.266 48.1719 243.562 48.5156 242.094 49.2031C240.641 49.875 239.422 50.7891 238.438 51.9453C237.453 53.1016 236.711 54.4531 236.211 56C235.727 57.5469 235.484 59.1875 235.484 60.9219V61.7422C235.484 63.4922 235.734 65.1406 236.234 66.6875C236.734 68.2188 237.477 69.5625 238.461 70.7188C239.43 71.875 240.641 72.7969 242.094 73.4844C243.562 74.1562 245.273 74.4922 247.227 74.4922C248.633 74.4922 249.969 74.2656 251.234 73.8125C252.516 73.3438 253.648 72.7031 254.633 71.8906C255.602 71.1094 256.367 70.1797 256.93 69.1016C257.508 68.0078 257.789 66.8438 257.773 65.6094H252.5C252.5 66.25 252.352 66.8359 252.055 67.3672C251.773 67.8984 251.391 68.3594 250.906 68.75C250.406 69.1406 249.828 69.4453 249.172 69.6641C248.531 69.8672 247.859 69.9688 247.156 69.9688ZM273.664 62.9609L281.75 74H288.688L277.391 59.2109L287.258 48.6406H280.508L272.938 56.6094L270.617 59.1875V38H264.992V74H270.617V65.8438L273.664 62.9609Z" fill="#040D12"/>
<path d="M173.703 82.5391V77.875H147.125V82.5391H157.578V112H163.18V82.5391H173.703ZM179.75 86.6406V91.3047H187.555V107.359H179.75V112H200.656V107.359H193.203V86.6406H179.75ZM187.039 80.0781C187.039 80.6719 187.18 81.1953 187.461 81.6484C187.758 82.0859 188.188 82.3906 188.75 82.5625C189.297 82.7344 189.797 82.7734 190.25 82.6797C190.703 82.5859 191.094 82.3906 191.422 82.0938C192.078 81.9219 192.578 81.5859 192.922 81.0859C193.266 80.5703 193.383 79.9688 193.273 79.2812C193.195 78.6094 192.891 78.0625 192.359 77.6406C191.844 77.2031 191.164 76.9844 190.32 76.9844C189.82 76.9844 189.367 77.0625 188.961 77.2188C188.57 77.3594 188.234 77.5625 187.953 77.8281C187.656 78.1094 187.43 78.4453 187.273 78.8359C187.117 79.2109 187.039 79.625 187.039 80.0781ZM210.477 86.6406H205.602V112H210.758V92.5234C210.852 92.2891 210.953 92.0781 211.062 91.8906C211.188 91.7031 211.328 91.5391 211.484 91.3984C211.688 91.1953 211.93 91.0469 212.211 90.9531C212.508 90.8438 212.844 90.7891 213.219 90.7891C213.562 90.7891 213.867 90.8359 214.133 90.9297C214.414 91.0234 214.656 91.1719 214.859 91.375C215.062 91.5781 215.211 91.8594 215.305 92.2188C215.414 92.5625 215.469 92.9844 215.469 93.4844V112H220.531V93.1797C220.531 93.0234 220.531 92.9062 220.531 92.8281C220.531 92.7344 220.531 92.6562 220.531 92.5938C220.594 92.3281 220.688 92.0938 220.812 91.8906C220.938 91.6719 221.094 91.4844 221.281 91.3281C221.484 91.1562 221.719 91.0234 221.984 90.9297C222.25 90.8359 222.562 90.7891 222.922 90.7891C223.266 90.7891 223.578 90.8359 223.859 90.9297C224.156 91.0234 224.406 91.1719 224.609 91.375C224.812 91.5938 224.969 91.8828 225.078 92.2422C225.188 92.5859 225.242 93.0078 225.242 93.5078V112H230.398V93.5547C230.398 92.2266 230.258 91.0938 229.977 90.1562C229.711 89.2031 229.328 88.4297 228.828 87.8359C228.328 87.2734 227.734 86.8594 227.047 86.5938C226.375 86.3125 225.633 86.1719 224.82 86.1719C224.195 86.1719 223.617 86.25 223.086 86.4062C222.57 86.5625 222.102 86.7812 221.68 87.0625C221.352 87.2812 221.047 87.5469 220.766 87.8594C220.484 88.1719 220.234 88.5078 220.016 88.8672C219.859 88.4766 219.672 88.1328 219.453 87.8359C219.234 87.5234 218.984 87.2578 218.703 87.0391C218.344 86.7422 217.914 86.5234 217.414 86.3828C216.914 86.2422 216.352 86.1719 215.727 86.1719C214.523 86.1719 213.492 86.4609 212.633 87.0391C211.789 87.6172 211.125 88.4141 210.641 89.4297L210.477 86.6406ZM247.953 112.469C250.422 112.469 252.523 111.984 254.258 111.016C256.008 110.047 257.305 108.953 258.148 107.734L255.148 104.828C254.367 105.828 253.375 106.602 252.172 107.148C250.969 107.68 249.672 107.945 248.281 107.945C247.266 107.945 246.328 107.773 245.469 107.43C244.625 107.086 243.891 106.602 243.266 105.977C242.641 105.383 242.148 104.711 241.789 103.961C241.43 103.211 241.164 102.281 240.992 101.172V101.055H258.57V98.6406C258.57 96.8281 258.328 95.1562 257.844 93.625C257.359 92.0938 256.641 90.7734 255.688 89.6641C254.734 88.5703 253.555 87.7188 252.148 87.1094C250.742 86.4844 249.125 86.1719 247.297 86.1719C245.656 86.1719 244.109 86.4844 242.656 87.1094C241.219 87.7188 239.953 88.5938 238.859 89.7344C237.766 90.875 236.906 92.25 236.281 93.8594C235.656 95.4688 235.344 97.2656 235.344 99.25V100.211C235.344 101.945 235.641 103.562 236.234 105.062C236.844 106.547 237.703 107.836 238.812 108.93C239.922 110.039 241.25 110.906 242.797 111.531C244.359 112.156 246.078 112.469 247.953 112.469ZM247.273 90.7188C248.211 90.7188 249.031 90.8828 249.734 91.2109C250.453 91.5234 251.047 91.9453 251.516 92.4766C252 93.0234 252.375 93.6641 252.641 94.3984C252.906 95.1172 253.039 95.8438 253.039 96.5781V96.9531H241.109C241.281 95.9844 241.547 95.1172 241.906 94.3516C242.266 93.5859 242.711 92.9297 243.242 92.3828C243.773 91.8516 244.375 91.4453 245.047 91.1641C245.734 90.8672 246.477 90.7188 247.273 90.7188ZM282.477 86.1719C280.727 86.1719 279.125 86.5781 277.672 87.3906C276.234 88.2031 275 89.3203 273.969 90.7422L273.945 90.1562L273.711 86.6406H268.461V112H274.062V96.3438C274.359 95.5938 274.727 94.9297 275.164 94.3516C275.602 93.7734 276.133 93.2969 276.758 92.9219C277.336 92.5312 278 92.2422 278.75 92.0547C279.5 91.8672 280.344 91.7734 281.281 91.7734C282.109 91.7734 282.938 91.8203 283.766 91.9141C284.609 92.0078 285.461 92.1484 286.32 92.3359L287.117 86.8047C286.633 86.6328 285.961 86.4844 285.102 86.3594C284.258 86.2344 283.383 86.1719 282.477 86.1719Z" fill="#040D12"/>
</svg>
